<svg width="608" height="602" viewBox="0 0 608 602" fill="none" xmlns="http://www.w3.org/2000/svg">
<g filter="url(#filter0_f_1_19)">
<path d="M99.4594 171.9C134.932 116.848 209.557 101.775 266.139 138.233C267.077 138.838 268.004 139.455 268.921 140.081C269.498 139.132 270.088 138.188 270.693 137.249C307.152 80.6679 381.336 63.5552 436.388 99.0282C491.44 134.501 506.514 209.126 470.056 265.707C469.451 266.646 468.833 267.573 468.208 268.49C469.156 269.066 470.101 269.656 471.039 270.261C527.62 306.719 544.732 380.904 509.259 435.956C473.786 491.008 399.161 506.081 342.58 469.623C341.642 469.019 340.715 468.404 339.798 467.779C302.745 522.19 230.063 538.19 175.9 503.29C121.736 468.39 106.272 395.592 140.507 339.366C139.56 338.79 138.617 338.2 137.679 337.596C81.0978 301.137 63.9864 226.953 99.4594 171.9Z" fill="url(#paint0_linear_1_19)" fill-opacity="0.85"/>
</g>
<defs>
<filter id="filter0_f_1_19" x="0.974098" y="0.543274" width="606.77" height="601.232" filterUnits="userSpaceOnUse" color-interpolation-filters="sRGB">
<feFlood flood-opacity="0" result="BackgroundImageFix"/>
<feBlend mode="normal" in="SourceGraphic" in2="BackgroundImageFix" result="shape"/>
<feGaussianBlur stdDeviation="40" result="effect1_foregroundBlur_1_19"/>
</filter>
<linearGradient id="paint0_linear_1_19" x1="101.244" y1="169.132" x2="785.978" y2="632.757" gradientUnits="userSpaceOnUse">
<stop stop-color="#FF8198"/>
<stop offset="0.120192" stop-color="#FF8198"/>
<stop offset="0.416676" stop-color="#FF6370"/>
<stop offset="0.789716" stop-color="#F9F62D"/>
</linearGradient>
</defs>
</svg>
